<?xml version="1.0" standalone="no"?>
<!DOCTYPE svg PUBLIC "-//W3C//DTD SVG 20010904//EN"
 "http://www.w3.org/TR/2001/REC-SVG-20010904/DTD/svg10.dtd">
<svg version="1.0" xmlns="http://www.w3.org/2000/svg"
 width="260.000000pt" height="260.000000pt" viewBox="0 0 260.000000 260.000000"
 preserveAspectRatio="xMidYMid meet">
<metadata>
Created by potrace 1.14, written by Peter Selinger 2001-2017
</metadata>
<g transform="translate(0.000000,260.000000) scale(0.100000,-0.100000)"
fill="#000000" stroke="none">
<path d="M1785 2282 c-28 -10 -65 -27 -82 -40 -79 -56 -132 -72 -245 -72 -200
0 -249 -24 -360 -179 -82 -115 -110 -145 -167 -182 -25 -16 -40 -29 -35 -29 6
0 36 18 67 40 39 28 79 72 126 138 127 178 153 193 349 198 145 4 165 10 273
75 111 66 252 77 305 24 39 -39 31 -53 -52 -91 -70 -32 -82 -34 -180 -34 -251
0 -429 -83 -569 -266 -90 -117 -144 -173 -200 -205 -56 -32 -54 -40 3 -9 56
29 92 65 182 178 118 148 219 223 358 263 80 24 282 38 282 20 0 -6 -5 -11
-11 -11 -26 0 -235 -128 -358 -220 -78 -57 -163 -111 -207 -130 -54 -24 -74
-38 -74 -52 0 -28 43 -44 86 -30 42 13 43 20 -11 -111 -37 -88 -44 -156 -18
-164 7 -3 29 22 50 55 21 33 44 68 51 78 12 18 13 18 7 -1 -30 -95 -29 -189 2
-183 19 4 23 10 64 106 18 40 33 71 35 69 2 -2 -6 -31 -17 -65 -34 -100 -3
-127 53 -47 23 33 35 42 44 34 18 -15 86 22 121 68 17 21 55 88 87 149 63 124
133 204 206 237 28 13 75 22 130 25 74 4 92 2 128 -17 46 -23 68 -57 78 -121
5 -32 0 -62 -27 -141 -32 -95 -33 -101 -20 -157 27 -122 26 -126 -10 -166 -19
-20 -65 -53 -103 -73 -108 -59 -112 -67 -108 -237 5 -226 -31 -350 -126 -437
-27 -24 -57 -50 -68 -57 -10 -7 -4 -5 14 3 50 24 111 90 138 150 41 90 56 183
52 342 l-3 143 30 29 c17 16 62 47 100 69 76 42 115 88 115 134 0 15 -7 55
-16 87 -18 64 -17 76 27 196 39 109 12 207 -66 245 -52 25 -155 27 -239 3 -52
-14 -71 -27 -127 -82 -52 -52 -77 -88 -119 -174 -58 -118 -114 -189 -160 -205
-16 -6 -30 -9 -30 -7 0 1 16 26 35 54 34 51 54 115 40 129 -8 8 -15 -3 -86
-137 -54 -101 -80 -133 -95 -119 -10 10 31 136 69 211 19 37 31 67 27 67 -16
0 -77 -101 -116 -194 -24 -55 -49 -101 -56 -101 -38 0 14 231 68 302 13 17 24
34 24 38 0 20 -29 -22 -105 -150 -47 -80 -90 -145 -95 -145 -17 0 -11 67 12
127 22 60 81 177 103 203 17 22 27 40 21 40 -3 0 -17 -18 -32 -39 -20 -30 -35
-41 -70 -50 -31 -8 -50 -8 -64 -1 -31 17 -24 29 28 50 76 31 118 57 238 147
145 107 255 172 424 249 145 66 158 80 126 129 -30 46 -158 59 -251 27z m-199
-739 c-13 -27 -32 -56 -42 -63 -12 -11 -9 1 11 40 30 60 46 83 52 76 2 -2 -7
-26 -21 -53z"/>
<path d="M845 1770 c-13 -6 -15 -9 -5 -9 8 0 22 4 30 9 18 12 2 12 -25 0z"/>
<path d="M770 1750 c-20 -6 -21 -8 -5 -8 11 0 29 3 40 8 25 11 -1 11 -35 0z"/>
<path d="M708 1733 c6 -2 18 -2 25 0 6 3 1 5 -13 5 -14 0 -19 -2 -12 -5z"/>
<path d="M653 1723 c9 -2 23 -2 30 0 6 3 -1 5 -18 5 -16 0 -22 -2 -12 -5z"/>
<path d="M588 1713 c6 -2 18 -2 25 0 6 3 1 5 -13 5 -14 0 -19 -2 -12 -5z"/>
<path d="M439 1643 c-13 -16 -12 -17 4 -4 9 7 17 15 17 17 0 8 -8 3 -21 -13z"/>
<path d="M813 1623 c9 -2 23 -2 30 0 6 3 -1 5 -18 5 -16 0 -22 -2 -12 -5z"/>
<path d="M928 1623 c6 -2 18 -2 25 0 6 3 1 5 -13 5 -14 0 -19 -2 -12 -5z"/>
<path d="M878 1613 c6 -2 18 -2 25 0 6 3 1 5 -13 5 -14 0 -19 -2 -12 -5z"/>
<path d="M1089 1344 c-49 -52 -19 -132 89 -237 l39 -38 81 56 c90 62 112 87
112 126 0 54 -77 80 -115 39 -23 -26 -35 -25 -35 1 0 28 -53 79 -82 78 -22 0
-22 -1 -3 -9 12 -4 27 -16 35 -26 14 -16 13 -17 -5 -9 -49 20 -73 18 -90 -9
-11 -17 -15 -35 -11 -52 5 -19 3 -25 -6 -22 -19 7 -22 66 -4 93 9 13 26 26 38
28 21 4 21 4 2 6 -11 0 -31 -11 -45 -25z"/>
<path d="M1031 1097 c-13 -21 -12 -21 5 -5 10 10 16 20 13 22 -3 3 -11 -5 -18
-17z"/>
<path d="M1380 1083 c8 -2 22 -7 30 -10 12 -4 11 -7 -5 -20 l-20 -16 20 8 c11
4 28 10 39 13 15 4 12 7 -14 18 -18 8 -40 14 -49 13 -13 0 -13 -1 -1 -6z"/>
<path d="M1310 1070 c-11 -8 -7 -9 15 -4 37 8 45 14 19 14 -10 0 -26 -5 -34
-10z"/>
<path d="M1500 1061 c11 -8 12 -15 4 -28 -12 -19 -9 -18 -132 -74 -50 -23 -90
-44 -88 -46 2 -2 41 15 87 37 50 25 94 40 109 38 18 -3 26 1 27 12 1 8 4 26 5
39 2 15 -3 26 -12 28 -13 4 -13 3 0 -6z"/>
<path d="M1260 1050 c-8 -5 -10 -10 -5 -10 6 0 17 5 25 10 8 5 11 10 5 10 -5
0 -17 -5 -25 -10z"/>
<path d="M939 1033 c-13 -16 -12 -17 4 -4 9 7 17 15 17 17 0 8 -8 3 -21 -13z"/>
<path d="M1355 1030 c-3 -6 1 -7 9 -4 18 7 21 14 7 14 -6 0 -13 -4 -16 -10z"/>
<path d="M1320 1010 c-9 -6 -10 -10 -3 -10 6 0 15 5 18 10 8 12 4 12 -15 0z"/>
<path d="M1491 947 c-13 -21 -12 -21 5 -5 10 10 16 20 13 22 -3 3 -11 -5 -18
-17z"/>
<path d="M1103 933 c9 -2 23 -2 30 0 6 3 -1 5 -18 5 -16 0 -22 -2 -12 -5z"/>
<path d="M1443 929 c28 -16 20 -45 -25 -85 -24 -20 -34 -31 -23 -23 68 45 96
99 59 113 -24 9 -31 7 -11 -5z"/>
<path d="M1368 909 c-21 -11 -38 -22 -38 -24 0 -5 79 32 89 41 12 11 -18 1
-51 -17z"/>
<path d="M1240 900 c-8 -5 -10 -10 -5 -10 6 0 17 5 25 10 8 5 11 10 5 10 -5 0
-17 -5 -25 -10z"/>
<path d="M1871 895 c-3 -50 -69 -161 -127 -214 -32 -30 -49 -49 -36 -42 68 36
182 209 169 258 -4 16 -5 15 -6 -2z"/>
<path d="M1344 794 c-18 -14 -18 -15 4 -4 12 6 22 13 22 15 0 8 -5 6 -26 -11z"/>
<path d="M1250 745 c-14 -8 -20 -14 -14 -15 5 0 19 7 30 15 24 18 16 19 -16 0z"/>
<path d="M1588 593 c7 -3 16 -2 19 1 4 3 -2 6 -13 5 -11 0 -14 -3 -6 -6z"/>
<path d="M1513 583 c9 -2 23 -2 30 0 6 3 -1 5 -18 5 -16 0 -22 -2 -12 -5z"/>
<path d="M1765 490 c-13 -6 -15 -9 -5 -9 8 0 22 4 30 9 18 12 2 12 -25 0z"/>
<path d="M1678 463 c7 -3 16 -2 19 1 4 3 -2 6 -13 5 -11 0 -14 -3 -6 -6z"/>
<path d="M1488 453 c6 -2 18 -2 25 0 6 3 1 5 -13 5 -14 0 -19 -2 -12 -5z"/>
<path d="M1583 453 c9 -2 23 -2 30 0 6 3 -1 5 -18 5 -16 0 -22 -2 -12 -5z"/>
</g>
</svg>
